<svg version="1" xmlns="http://www.w3.org/2000/svg" width="682.667" height="682.667" viewBox="0 0 512.000000 512.000000"><path d="M232 1c-40.6 3.9-82.1 18.4-115.4 40.4C52.4 83.6 12 148.3 1.8 225c-1.6 12.3-1.6 50.9 0 62.5 6.5 45.9 23.3 87.3 50.1 123 9.2 12.2 30.4 34.1 42.6 44 36.8 29.9 82.2 49.3 130.5 55.7 12.3 1.6 50.9 1.6 62.5 0 45.9-6.5 87.3-23.3 123-50.1 12.2-9.2 34.1-30.4 44-42.6 29.9-36.8 49.3-82.2 55.7-130.5 1.6-12.3 1.6-50.9 0-62.5-6.9-48.6-25.4-92.2-55.1-129.4C414.5 44.4 353.9 10.6 288 2 276.5.5 243.7-.1 232 1zm52.7 26.5c26.7 3.5 48.9 10.2 72.8 21.9 25.3 12.5 43.6 25.8 63.6 46.2 24.4 25.1 42.4 54.6 53.4 87.7 8.2 24.7 11.5 45.8 11.5 73.1 0 50.8-15.6 97.5-46.3 138.4-9.2 12.4-26.8 30.5-39.1 40.5-33.6 27-76.5 45-118.8 49.6-10.9 1.2-44.3 1.4-47.2.2-2.5-1-12-35.9-13.7-50.5-2.2-19.2 1.3-44.9 8.1-58.9 2-3.9 8-12.3 15.2-20.9 22.6-26.9 28.7-36.5 30.9-48.3 1-4.9 3.2-9.2 11.9-23 5.9-9.4 12.5-20.6 14.8-25 13.1-26.2 17.8-57.7 13.3-88.5-4.2-28.3-7.4-37.4-17.1-48.5-6-6.7-8-10.8-8-16 0-4.4 3.1-10.6 6.5-13.4 2.6-1.9 3.5-2 33.8-1.5 32.9.6 42.8 1.6 73.7 7.9 11.1 2.3 11.4 2.3 9 .3-8.9-7.3-26.4-14.9-45-19.8-21.4-5.5-33.3-10.6-43.8-18.6-7.4-5.6-14.3-7.7-24.2-7.2-9.3.5-15.8 2.8-22.1 7.8l-3.7 2.9-24-5.4c-39.4-8.8-51.4-9.3-77.2-3-11.3 2.8-50.2 14.6-49.7 15.1.2.2 6-.7 12.9-2.1 29.7-5.7 45.1-7.6 64.8-8.2 15.2-.4 22-.2 31 1.1 19.8 2.9 19.5 3.4-1.5 2.8-31.7-.8-41.7 1.3-81.3 17-13.9 5.5-25.1 10.2-24.9 10.5.2.2 10.8-2.6 23.5-6.2 48.9-13.9 69.7-16.6 102.8-13.5 17.1 1.6 15.9.7 11.9 9.3-4.3 9.1-5.8 18-4.5 26.4.9 5.6 6.5 23.1 15.2 47.3 5.9 16.4 3.9 36.3-4.7 48.2-4.3 5.9-10.4 9.5-20.3 12-10.4 2.6-16.6 5.9-31.9 16.6-7 4.9-15.9 10.9-19.8 13.2-10 6.1-17.9 12.4-26.6 21.2-26.8 27-44.7 59.9-51.9 95.7-2.4 12.1-3 13.3-10.4 22.5-6.8 8.5-8.6 12.2-8.6 17.4 0 2.9.7 4.9 2.6 7.1 2.2 2.7 2.4 3.6 1.9 7.6-.4 2.5-.4 4.5 0 4.5s2.7-1.4 5.2-3c2.4-1.7 4.7-3 5-3 .4 0 2.1 1.6 3.9 3.5 1.8 2 4.1 3.5 5.4 3.5 3.1 0 9.7-7.1 12.5-13.6 2.6-5.7 6.8-10.3 12.9-14.2 3.5-2.2 5.2-2.5 13.1-2.6 9.3-.1 11.3-.8 20.3-7.2 2.1-1.6 2.2-1.6 2.2 1.2 0 6.2-4.1 30.7-6.2 36.6-1.8 5.5-2.2 9.2-2.5 27.9l-.5 21.7-6.1-2.5c-41.6-16.9-81.1-49.6-105.9-87.8-8.7-13.3-20.1-37.2-25.2-52.5-8.3-25.1-11.6-46-11.6-73.4 0-50.5 15.5-97.2 45.8-138 8.8-11.8 27.3-31.1 38.7-40.3 33.6-27.2 76.6-45.4 118.5-50.2 12.8-1.5 42.9-1.2 55.7.4zm-70.7 355c-.7 3.3-2.9 13.1-5.1 21.7-4.8 19.5-5 25.2-1 35.3 3.6 9 12.6 42.3 11.7 43.2-.8.8-16.6-2.2-26.6-5l-7.5-2.2.3-5.5c.2-3 1-10.2 1.9-16 .8-5.8 1.8-12.8 2.2-15.6.4-2.7.3-6.3-.1-8-1.4-4.8-1.2-13.3.6-24.4 3.4-21.1 3.3-20.9 9-26.5 3.2-3.2 6.8-5.7 9.6-6.7l4.5-1.5.8 2.6c.4 1.4.3 5.3-.3 8.6z"/><path d="M114.2 245.3C82.8 276.7 57 303.1 57 303.8c0 2.2 4.3 16.2 4.9 16.2.3 0 25.1-24.5 55.1-54.5l54.5-54.5 10.7 10.7 10.7 10.6 6.5-4.3c3.6-2.3 6.6-4.5 6.6-4.9 0-.3-7.8-8.4-17.3-17.9L171.5 188l-57.3 57.3zM375.2 307.2L333 349.5 310.5 327C292 308.5 288 305 288 307c0 1.3-1 5.5-2.2 9.3l-2.1 6.9 24.6 24.6 24.7 24.7 41.8-41.8c22.9-22.9 42.2-41.7 42.7-41.7.6 0 8 7 16.5 15.5s15.7 15.5 16.1 15.5c.6 0 4.9-14 4.9-16.2 0-.7-8.4-9.8-18.8-20.1L417.5 265l-42.3 42.2z"/></svg>